<svg width="155" height="240" viewBox="0 0 155 240" fill="none" xmlns="http://www.w3.org/2000/svg">
<g clip-path="url(#clip0_22132_338073)">
<path d="M115.966 176.35C113.603 173.127 112.063 169.393 110.794 165.625C109.967 163.165 109.139 160.867 108.59 158.314C107.985 155.516 107.49 152.696 107.092 149.86C106.309 144.247 105.938 138.58 105.976 132.913C106.02 127.42 106.445 121.894 105.655 116.461C105.824 116.538 105.987 116.619 106.156 116.696C114.464 120.67 121.568 127.088 126.446 134.895C131.525 143.017 134.9 152.446 136.8 161.836C137.66 166.083 138.313 170.498 137.366 174.722C136.484 178.664 133.392 183.999 128.825 183.928C123.658 183.846 118.917 180.362 115.966 176.344V176.35Z" fill="white"/>
<path d="M128.917 185.294C128.879 185.294 128.841 185.294 128.797 185.294C123.751 185.213 118.546 182.169 114.866 177.15C111.377 172.398 109.602 166.551 108.029 161.39L110.631 160.595C112.21 165.789 113.843 171.156 117.055 175.539C119.51 178.887 123.892 182.491 128.835 182.567C128.857 182.567 128.879 182.567 128.901 182.567C132.559 182.567 135.265 177.82 136.027 174.423C136.865 170.677 136.402 166.79 135.455 162.103C133.441 152.163 124.355 125.085 106.695 119.243L107.55 116.657C126.435 122.907 136.021 151.188 138.123 161.559C139.005 165.908 139.68 170.552 138.683 175.016C137.758 179.164 134.394 185.283 128.912 185.289L128.917 185.294Z" fill="#040F58"/>
<path d="M116.788 175.555L114.474 174.123C116.777 170.394 120.484 167.476 124.649 166.115C128.814 164.754 133.533 164.923 137.589 166.573L136.566 169.093C133.093 167.683 129.059 167.542 125.493 168.707C121.933 169.872 118.759 172.365 116.788 175.555Z" fill="#040F58"/>
<path d="M39.0817 176.35C40.2467 174.766 41.2157 173.045 42.0487 171.265C43.1483 168.908 44.0085 166.442 44.7978 163.965C45.5654 161.559 45.9519 159.049 46.578 156.583C47.988 151.052 49.2346 145.445 49.6592 139.74C50.2036 132.407 49.3326 124.807 45.9356 118.285C39.0981 122.384 33.1751 127.986 28.6675 134.562C25.7496 138.825 23.9313 143.501 22.1621 148.346C20.5561 152.745 19.1788 157.253 18.2479 161.842C17.3878 166.088 16.7345 170.503 17.6817 174.728C18.5637 178.669 21.6558 184.004 26.2232 183.933C31.3895 183.852 36.1311 180.367 39.0817 176.35Z" fill="white"/>
<path d="M26.1307 185.294C20.6433 185.294 17.2844 179.17 16.3589 175.022C15.3627 170.558 16.0377 165.919 16.9196 161.564C19.021 151.194 28.6023 122.913 47.4926 116.663L48.3473 119.249C30.6927 125.09 21.6014 152.168 19.5872 162.109C18.6399 166.796 18.1772 170.683 19.0155 174.428C19.7722 177.825 22.4833 182.572 26.1416 182.572C26.1634 182.572 26.1852 182.572 26.2069 182.572C31.15 182.491 35.5324 178.887 37.9876 175.544C41.1995 171.162 42.8326 165.794 44.4114 160.601L47.0136 161.395C45.4457 166.556 43.6656 172.398 40.176 177.156C36.4959 182.175 31.2861 185.218 26.245 185.3C26.2069 185.3 26.1634 185.3 26.1253 185.3L26.1307 185.294Z" fill="#040F58"/>
<path d="M38.2597 175.555C36.289 172.365 33.1152 169.872 29.5549 168.707C25.9891 167.542 21.9552 167.683 18.482 169.093L17.4585 166.573C21.5196 164.923 26.2341 164.76 30.3987 166.115C34.5632 167.476 38.2705 170.394 40.5733 174.123L38.2597 175.555Z" fill="#040F58"/>
<path d="M120.637 143.931C120.637 172.893 93.853 208.099 77.2926 206.7C60.7323 205.301 33.9482 172.893 33.9482 143.931C33.9482 114.97 53.3558 114.447 77.2926 114.447C101.229 114.447 120.637 114.97 120.637 143.931Z" fill="white"/>
<path opacity="0.3" d="M122.052 143.262H119.728C119.575 137.9 118.873 132.526 117.735 127.279C117.85 133.681 117.191 140.077 115.83 146.327C109.869 149.016 96.2318 151.232 77.3143 151.232C51.4557 151.232 35.4452 147.094 35.4452 143.262H32.5708C32.5708 147.051 37.3778 149.816 47.2693 151.727C55.212 153.262 65.8821 154.106 77.3143 154.106C82.7364 154.106 103.832 153.828 115.008 149.74C111.889 161.651 106.2 172.898 98.3767 182.398C94.8491 174.249 86.7268 168.527 77.2979 168.527C67.3737 168.527 58.8975 174.858 55.702 183.694C48.4235 176.519 42.261 168.211 37.5683 159.131C39.882 171.374 45.8267 183.138 54.3628 192.339C54.3845 192.899 54.4172 193.46 54.4771 194.015L55.8108 193.868C58.8594 196.944 62.2074 199.704 65.8222 202.045C69.2246 204.25 72.9972 206.182 77.0475 206.302C82.0123 206.455 86.6451 203.874 90.6736 200.967C93.2377 199.116 95.6657 197.08 97.9576 194.903L99.9609 195.229C100.097 194.386 100.173 193.531 100.217 192.671C106.956 185.692 112.302 177.368 115.77 168.304C118.345 161.575 119.564 154.471 119.744 147.29C121.214 146.147 122.063 144.813 122.063 143.256L122.052 143.262ZM91.6644 189.622C88.7574 192.393 85.5019 195.028 81.6095 196.024C77.9022 196.971 73.9118 196.318 70.4005 194.799C66.8837 193.286 63.7862 190.956 60.8682 188.473C59.8938 187.646 58.9465 186.78 58.0047 185.915C60.4273 177.542 68.1467 171.401 77.287 171.401C86.4274 171.401 93.499 177.052 96.2373 184.891C94.7783 186.53 93.2486 188.109 91.6589 189.622H91.6644Z" fill="#040F58"/>
<path d="M77.309 152.114C65.8823 152.114 55.2176 151.27 47.2804 149.74C37.4324 147.84 32.6472 145.096 32.6472 141.351H35.3692C35.3692 145.222 51.4069 149.397 77.3145 149.397C103.222 149.397 119.26 145.222 119.26 141.351H121.982C121.982 151.814 81.8873 152.119 77.3145 152.119L77.309 152.114Z" fill="#040F58"/>
<path d="M78.2779 208.099C77.9077 208.099 77.5375 208.082 77.1782 208.055C68.6585 207.337 57.6019 199.062 48.3146 186.459C38.3196 172.893 32.5872 157.394 32.5872 143.931C32.5872 113.086 54.3029 113.086 77.2925 113.086C100.282 113.086 121.998 113.086 121.998 143.931C121.998 164.553 109.003 187.287 96.172 199.084C89.7318 205.007 83.5693 208.104 78.2779 208.104V208.099ZM77.2925 115.808C51.2652 115.808 35.3091 117.169 35.3091 143.931C35.3091 156.823 40.8456 171.739 50.5085 184.842C59.2079 196.65 69.769 204.696 77.4068 205.339C82.094 205.736 88.0987 202.796 94.3265 197.075C106.722 185.681 119.27 163.764 119.27 143.931C119.27 117.169 103.32 115.808 77.2871 115.808H77.2925Z" fill="#040F58"/>
<path d="M100.794 193.847L98.1102 193.406C98.2953 192.273 98.3878 191.114 98.3878 189.96C98.3878 178.326 88.9263 168.865 77.2927 168.865C65.659 168.865 56.1975 178.326 56.1975 189.96C56.1975 190.733 56.2411 191.517 56.3227 192.284L53.6171 192.578C53.5246 191.713 53.4756 190.831 53.4756 189.954C53.4756 176.823 64.162 166.137 77.2927 166.137C90.4234 166.137 101.11 176.823 101.11 189.954C101.11 191.255 101.001 192.562 100.794 193.841V193.847Z" fill="#040F58"/>
<path d="M63.2854 31.6563C63.2854 26.3158 67.6569 21.9444 72.9973 21.9444H81.1196C86.4601 21.9444 90.8316 26.3158 90.8316 31.6563" fill="white"/>
<path d="M143.044 60.2096C148.384 60.2096 152.756 64.5811 152.756 69.9215V78.0438C152.756 83.3843 148.384 87.7558 143.044 87.7558" fill="#2E73E9"/>
<path d="M11.073 60.2096C5.73254 60.2096 1.36108 64.5811 1.36108 69.9215V78.0438C1.36108 83.3843 5.73254 87.7558 11.073 87.7558" fill="#2E73E9"/>
<path d="M134.982 54.3628C141.433 55.3754 146.463 63.7754 146.463 73.9881C146.463 84.2009 141.444 92.5736 135.009 93.6079" fill="#1BA5F8"/>
<path d="M19.1353 54.3628C12.6842 55.3754 7.65405 63.7754 7.65405 73.9881C7.65405 84.1846 12.6733 92.5736 19.108 93.6079" fill="#1BA5F8"/>
<path d="M77.0584 12.6081C80.1642 12.6081 82.6819 10.0903 82.6819 6.98453C82.6819 3.87873 80.1642 1.36098 77.0584 1.36098C73.9526 1.36098 71.4348 3.87873 71.4348 6.98453C71.4348 10.0903 73.9526 12.6081 77.0584 12.6081Z" fill="#1BA5F8"/>
<path d="M101.964 30.9758H52.1581C32.6874 30.9758 16.9033 46.7599 16.9033 66.2305V81.7402C16.9033 101.211 32.6874 116.995 52.1581 116.995H101.964C121.435 116.995 137.219 101.211 137.219 81.7402V66.2305C137.219 46.7599 121.435 30.9758 101.964 30.9758Z" fill="white"/>
<path d="M102.296 101.082C108.029 101.082 113.277 97.7453 115.574 92.492C118.895 84.8977 121.426 76.9605 123.212 68.7021C125.406 58.5274 117.561 48.9353 107.152 48.9353H46.9701C36.5613 48.9353 28.7112 58.5274 30.9105 68.7021C32.6907 76.9605 35.2275 84.8977 38.5483 92.492C40.8457 97.7399 46.0936 101.082 51.826 101.082H102.302H102.296Z" fill="#070772"/>
<mask id="mask0_22132_338073" style="mask-type:alpha" maskUnits="userSpaceOnUse" x="30" y="48" width="94" height="53">
<path d="M102.243 100.775C107.976 100.775 113.224 97.4384 115.521 92.185C118.842 84.5908 121.373 76.6536 123.159 68.3951C125.353 58.2205 117.508 48.6283 107.099 48.6283H46.9168C36.5081 48.6283 28.658 58.2205 30.8573 68.3951C32.6375 76.6536 35.1743 84.5908 38.4951 92.185C40.7924 97.4329 46.0404 100.775 51.7728 100.775H102.249H102.243Z" fill="#070772"/>
</mask>
<g mask="url(#mask0_22132_338073)">
<rect x="31" y="48" width="13.1429" height="38.4176" fill="#BEBEBE"/>
<rect x="31" y="86.4176" width="13.1429" height="5.05494" fill="#0000F8"/>
<rect x="31" y="91.4725" width="16.1758" height="14.1538" fill="#0002C6"/>
<rect x="47.1758" y="91.4725" width="16.1758" height="14.1538" fill="#FEFEFE"/>
<rect x="63.3516" y="91.4725" width="16.1758" height="14.1538" fill="#0002C9"/>
<rect x="44.1428" y="48" width="13.1429" height="38.4176" fill="#FDFF01"/>
<rect x="44.1428" y="86.4176" width="13.1429" height="5.05494" fill="#000100"/>
<rect x="57.2856" y="48" width="13.1429" height="38.4176" fill="#00FEFE"/>
<rect x="57.2856" y="86.4176" width="13.1429" height="5.05494" fill="#FF00FD"/>
<rect x="70.4285" y="48" width="13.1429" height="38.4176" fill="#01FF00"/>
<rect x="70.4285" y="86.4176" width="13.1429" height="5.05494" fill="#000100"/>
<rect x="83.5715" y="48" width="13.1429" height="38.4176" fill="#FD00FB"/>
<rect x="83.5715" y="86.4176" width="13.1429" height="5.05494" fill="#01FAFC"/>
<rect x="79.5276" y="91.4725" width="25.2747" height="14.1538" fill="black"/>
<rect x="96.7144" y="48" width="13.1429" height="38.4176" fill="#FB0102"/>
<rect x="96.7144" y="86.4176" width="13.1429" height="5.05494" fill="#000002"/>
<rect x="104.802" y="91.4725" width="5.05494" height="14.1538" fill="#767676"/>
<rect x="109.857" y="48" width="13.1429" height="38.4176" fill="#0100FA"/>
<rect x="109.857" y="86.4176" width="13.1429" height="5.05494" fill="#B9BCC3"/>
<rect x="109.857" y="91.4725" width="13.1429" height="14.1538" fill="black"/>
</g>
<path opacity="0.1" d="M123.707 69.2029C121.905 77.5539 119.347 85.5782 115.982 93.2541C113.669 98.5619 108.355 101.948 102.563 101.948H51.5319C45.7396 101.948 40.4264 98.5673 38.1018 93.2541C40.3719 88.2457 45.2442 84.6473 50.4758 82.8181C56.1647 80.8311 62.3 80.6297 68.3264 80.5317C74.3528 80.4228 80.4663 80.3793 86.2532 78.6808C92.8729 76.7318 98.7632 72.6435 103.358 67.4881C107.784 62.496 111.034 56.5404 113.32 50.2799C120.724 53.0617 125.493 60.9391 123.707 69.2029Z" fill="#040F58"/>
<path d="M101.964 118.356H52.1579C31.9665 118.356 15.5422 101.932 15.5422 81.7402V66.2305C15.5422 46.0391 31.9665 29.6148 52.1579 29.6148H101.964C122.156 29.6148 138.58 46.0391 138.58 66.2305V81.7402C138.58 101.932 122.156 118.356 101.964 118.356ZM52.1579 32.3368C33.469 32.3368 18.2642 47.5416 18.2642 66.2305V81.7402C18.2642 100.429 33.469 115.634 52.1579 115.634H101.964C120.653 115.634 135.858 100.429 135.858 81.7402V66.2305C135.858 47.5416 120.653 32.3368 101.964 32.3368H52.1579Z" fill="#040F58"/>
<path d="M135.227 94.9472L134.797 92.2579C140.578 91.3324 145.107 83.3026 145.107 73.9827C145.107 64.6627 140.567 56.6112 134.775 55.702L135.194 53.0128C142.396 54.1396 147.829 63.1548 147.829 73.9827C147.829 84.8106 142.413 93.7931 135.227 94.9472Z" fill="#040F58"/>
<path d="M143.044 89.1167V86.3948C147.649 86.3948 151.395 82.6494 151.395 78.0438V69.9215C151.395 65.316 147.649 61.5706 143.044 61.5706V58.8486C149.152 58.8486 154.117 63.8135 154.117 69.9215V78.0438C154.117 84.1519 149.152 89.1167 143.044 89.1167Z" fill="#040F58"/>
<path d="M61.9243 31.6563C61.9243 25.5482 66.8892 20.5834 72.9972 20.5834H81.1195C87.2276 20.5834 92.1924 25.5482 92.1924 31.6563H89.4705C89.4705 27.0508 85.7251 23.3054 81.1195 23.3054H72.9972C68.3917 23.3054 64.6463 27.0508 64.6463 31.6563H61.9243Z" fill="#040F58"/>
<path opacity="0.55" d="M103.097 50.0894C87.3473 51.0856 70.689 51.7498 54.9017 52.1744L48.8753 52.3377C46.8937 52.3595 45.1135 52.4575 43.2789 53.1107C37.9602 54.88 33.9753 59.981 33.5833 65.5827C33.3874 67.5316 33.7521 69.3717 34.0951 71.3261C34.6721 74.8102 35.3036 79.7968 36.1529 83.1938L35.2165 83.5095C33.91 79.5953 33.1587 75.6104 32.3476 71.6853C28.9941 60.3402 37.0021 49.8008 48.8589 50.2364C51.374 50.171 99.3294 49.1857 103.086 49.0986L103.107 50.0894H103.097Z" fill="white"/>
<path d="M18.8902 94.9472C11.7043 93.7985 6.2876 84.7834 6.2876 73.9827C6.2876 63.182 11.7206 54.1451 18.9229 53.0128L19.3421 55.702C13.5498 56.6112 9.00955 64.6409 9.00955 73.9827C9.00955 83.3244 13.5389 91.3324 19.3203 92.2579L18.8902 94.9472Z" fill="#040F58"/>
<path d="M11.0729 89.1167C4.96484 89.1167 0 84.1519 0 78.0438V69.9215C0 63.8135 4.96484 58.8486 11.0729 58.8486V61.5706C6.46736 61.5706 2.72195 65.316 2.72195 69.9215V78.0438C2.72195 82.6494 6.46736 86.3948 11.0729 86.3948V89.1167Z" fill="#040F58"/>
<path d="M102.296 102.443H51.8205C45.4947 102.443 39.7949 98.7524 37.2961 93.0418C33.9808 85.4639 31.3841 77.3742 29.5767 68.9906C28.4498 63.7699 29.7346 58.3804 33.1043 54.205C36.5068 49.9914 41.5587 47.5743 46.9645 47.5743H107.147C112.558 47.5743 117.61 49.9914 121.007 54.205C124.377 58.3804 125.662 63.7699 124.535 68.9906C122.727 77.3688 120.131 85.4584 116.815 93.0418C114.317 98.7524 108.617 102.443 102.291 102.443H102.296ZM46.97 50.2962C42.3862 50.2962 38.1073 52.3431 35.2274 55.9143C32.3748 59.4474 31.2861 64.004 32.2387 68.4135C34.008 76.6175 36.5503 84.5329 39.7949 91.9475C41.8581 96.6674 46.5834 99.7214 51.8259 99.7214H102.302C107.544 99.7214 112.27 96.6729 114.333 91.9475C117.577 84.5329 120.114 76.6121 121.884 68.4135C122.836 63.9985 121.747 59.442 118.895 55.9143C116.015 52.3431 111.731 50.2962 107.152 50.2962H46.97Z" fill="#040F58"/>
<path d="M78.4195 11.6881H75.6975V21.9444H78.4195V11.6881Z" fill="#040F58"/>
<path d="M77.0585 13.9691C73.2097 13.9691 70.074 10.8388 70.074 6.98453C70.074 3.13025 73.2042 0 77.0585 0C80.9128 0 84.043 3.13025 84.043 6.98453C84.043 10.8388 80.9128 13.9691 77.0585 13.9691ZM77.0585 2.72195C74.7067 2.72195 72.7959 4.63276 72.7959 6.98453C72.7959 9.3363 74.7067 11.2471 77.0585 11.2471C79.4103 11.2471 81.3211 9.3363 81.3211 6.98453C81.3211 4.63276 79.4103 2.72195 77.0585 2.72195Z" fill="#040F58"/>
<path opacity="0.3" d="M1.9924 76.1167C3.84333 77.249 6.12977 77.6464 8.25289 77.2055C8.1549 80.6079 9.14569 84.043 10.8932 86.9664C8.76462 87.6469 6.22231 87.0154 4.6708 85.4094C3.58746 84.288 2.97774 82.7855 2.68377 81.2557C2.39525 79.726 1.98151 77.6737 1.9924 76.1167Z" fill="#040F58"/>
<path opacity="0.3" d="M8.81377 74.2276C11.3234 75.7138 14.5408 75.9534 17.2409 74.8428C16.0052 80.5807 16.6094 86.7051 18.9013 92.1054C16.9252 92.4048 14.8293 91.5393 13.3594 90.1837C11.8896 88.8282 10.9206 87.0208 10.1639 85.1699C8.76477 81.7293 8.79199 77.9349 8.80832 74.2222L8.81377 74.2276Z" fill="#040F58"/>
<path opacity="0.3" d="M152.13 76.1167C150.279 77.249 147.993 77.6464 145.87 77.2055C145.968 80.6079 144.977 84.043 143.229 86.9664C145.358 87.6469 147.9 87.0154 149.452 85.4094C150.535 84.288 151.145 82.7855 151.439 81.2557C151.727 79.726 152.141 77.6737 152.13 76.1167Z" fill="#040F58"/>
<path opacity="0.3" d="M145.303 74.2276C142.794 75.7138 139.576 75.9534 136.876 74.8428C138.112 80.5807 137.508 86.7051 135.216 92.1054C137.192 92.4048 139.288 91.5393 140.758 90.1837C142.228 88.8282 143.197 87.0208 143.953 85.1699C145.352 81.7293 145.325 77.9349 145.309 74.2222L145.303 74.2276Z" fill="#040F58"/>
<path opacity="0.3" d="M65.3433 27.2903C69.8944 27.7694 74.489 27.8347 79.051 27.4808C80.51 27.3665 81.9907 27.2086 83.3517 26.6588C84.7127 26.109 85.9539 25.1236 86.5092 23.7681C88.7684 25.2271 90.3254 27.6605 90.5268 30.3389C90.4342 30.3389 90.3744 30.4314 90.2818 30.4314H63.6448C63.9279 28.9834 64.0531 28.0198 65.3378 27.2903H65.3433Z" fill="#040F58"/>
<path opacity="0.3" d="M72.8721 8.72659C74.6795 9.10766 76.6665 8.50883 77.9622 7.19685C79.2578 5.88487 79.8294 3.88695 79.4211 2.08502C80.8801 3.28813 82.0288 4.9594 82.2792 6.83755C82.5296 8.71025 81.7783 10.7626 80.1887 11.7915C79.236 12.4121 78.071 12.6299 76.9333 12.6299C75.7683 12.6299 74.5652 12.3958 73.6234 11.7098C72.6816 11.0239 72.6271 9.86981 72.8667 8.73203L72.8721 8.72659Z" fill="#040F58"/>
<path opacity="0.3" d="M126.957 40.8402C132.39 53.3013 133.447 67.6242 129.903 80.7495C127.888 88.1967 124.17 96.9233 117.093 100.772C107.381 106.053 97.3317 105.655 86.6889 105.508C74.4401 105.34 62.1151 106.2 49.9371 105.454C44.2972 105.105 39.2126 105.187 33.7414 103.331C28.5534 101.567 23.7029 98.7906 19.6145 95.1323C25.6627 107.452 38.6028 115.906 52.3106 116.603H92.6663C104.158 116.603 115.182 115.917 124.513 108.16C130.393 103.271 134.628 96.4279 136.375 88.9806C137.818 82.8345 137.595 76.4324 137.295 70.1229C137.05 64.9131 136.746 59.6543 135.325 54.635C133.904 49.6158 131.519 44.2045 127.355 41.0634L126.963 40.8511L126.957 40.8402Z" fill="#040F58"/>
<path opacity="0.3" d="M42.3045 120.974C42.3045 126.81 112.188 126.81 112.188 120.974L104.311 116.973H50.3016L42.2991 120.974H42.3045Z" fill="#040F58"/>
<path opacity="0.5" d="M78.3379 240C103.714 240 124.284 235.803 124.284 230.626C124.284 225.448 103.714 221.251 78.3379 221.251C52.9623 221.251 32.3914 225.448 32.3914 230.626C32.3914 235.803 52.9623 240 78.3379 240Z" fill="#97A5BA"/>
<path d="M95.9652 149.892C95.9544 150.388 95.8183 150.764 95.5352 151.096C93.3522 153.785 91.1855 156.491 88.9916 159.163C88.2022 160.127 86.9719 160.116 86.1825 159.153C85.2571 158.015 84.3371 156.877 83.4116 155.739C82.1649 154.215 80.9237 152.691 79.6934 151.161C79.5573 151.003 79.4539 150.829 79.3722 150.655C79.0891 150.039 79.1871 149.397 79.6825 148.782C80.2432 148.074 80.8203 147.377 81.381 146.67C82.693 145.064 83.9887 143.447 85.317 141.841C85.6109 141.482 85.9049 141.117 86.1989 140.758C86.8794 139.914 87.8702 139.832 88.6759 140.475C88.8228 140.567 88.9589 140.703 89.0787 140.85C90.5921 142.712 92.0892 144.557 93.6026 146.419V146.43C93.7877 146.659 93.9782 146.898 94.1633 147.127C94.6206 147.688 95.0724 148.248 95.5297 148.815C95.8128 149.136 95.9598 149.522 95.9707 149.898L95.9652 149.892Z" fill="#1CA4F7"/>
<path d="M85.6489 169.91C85.6871 170.416 85.4639 170.819 85.1699 171.194C83.0849 173.764 80.9835 176.344 78.8931 178.914C78.0928 179.905 77.0857 180.117 76.2582 179.491C75.79 179.132 75.4797 178.636 75.1204 178.179C74.5162 177.444 73.901 176.693 73.3294 175.958C72.0174 174.379 70.7326 172.784 69.4642 171.194C69.3172 171.009 69.1811 170.819 69.1049 170.645C68.7728 169.991 68.8926 169.398 69.4642 168.679C71.5492 166.072 73.6669 163.459 75.7791 160.867C76.5957 159.866 77.5702 159.757 78.4412 160.481C78.5882 160.601 78.7352 160.764 78.8822 160.938C80.352 162.773 81.8382 164.602 83.3244 166.437C83.9396 167.188 84.5438 167.923 85.1427 168.669C85.453 169.028 85.6925 169.42 85.6489 169.915V169.91Z" fill="#72C6FA"/>
<path d="M85.1807 138.428C83.0521 141.052 80.9127 143.686 78.7841 146.31C77.9022 147.394 76.6828 147.383 75.8008 146.3C74.9843 145.298 74.1677 144.291 73.3674 143.289C72.7523 142.538 72.1371 141.776 71.5328 141.03C70.8251 140.159 70.112 139.288 69.4042 138.406C69.2682 138.232 69.1647 138.074 69.0831 137.9C68.7891 137.284 68.8816 136.653 69.377 136.038C71.5328 133.359 73.6995 130.697 75.8662 128.035C76.2255 127.578 76.6936 127.284 77.2326 127.311C77.728 127.311 78.1145 127.447 78.4248 127.714C78.5337 127.796 78.6099 127.872 78.6916 127.981C80.2431 129.881 81.7946 131.797 83.3352 133.708C83.9504 134.459 84.5655 135.221 85.1807 135.983C85.8503 136.8 85.8503 137.616 85.1807 138.433V138.428Z" fill="#1CA4F7"/>
<path d="M74.821 151.259C72.736 153.856 70.6347 156.452 68.517 159.033C67.5915 160.171 66.4156 160.171 65.4793 159.022C64.8097 158.205 64.1401 157.378 63.4705 156.561C62.0279 154.781 60.5798 153.001 59.1371 151.221C59.0718 151.128 59.0011 151.036 58.9357 150.938C58.7506 150.644 58.6254 150.323 58.6526 149.936C58.6254 149.468 58.8377 149.081 59.1317 148.717C61.2331 146.12 63.3344 143.539 65.4357 140.943C66.2142 139.99 67.0961 139.794 67.9236 140.355C68.1359 140.502 68.3537 140.703 68.566 140.959C70.0358 142.777 71.5111 144.585 72.981 146.403C73.5962 147.154 74.2113 147.916 74.8156 148.662C75.5669 149.588 75.5669 150.333 74.8156 151.259H74.821Z" fill="#1CA4F7"/>
<path opacity="0.3" d="M74.821 151.259C72.736 153.856 70.6346 156.452 68.517 159.033C67.5915 160.171 66.4156 160.171 65.4793 159.022C64.8097 158.205 64.1401 157.378 63.4705 156.561C66.04 156.267 68.4734 155.021 70.2263 153.11C71.8867 151.275 72.8775 148.869 72.981 146.408C73.5961 147.16 74.2113 147.922 74.8156 148.668C75.5668 149.593 75.5668 150.339 74.8156 151.264L74.821 151.259Z" fill="#030073"/>
<path opacity="0.3" d="M85.1807 138.428C83.0521 141.052 80.9127 143.686 78.7841 146.31C77.9022 147.394 76.6828 147.383 75.8009 146.3C74.9843 145.298 74.1677 144.291 73.3674 143.289C76.1112 143.115 78.7732 141.846 80.6187 139.794C82.1321 138.134 83.0957 135.956 83.3352 133.708C83.9504 134.459 84.5655 135.221 85.1807 135.983C85.8503 136.8 85.8503 137.616 85.1807 138.433V138.428Z" fill="#030073"/>
<path opacity="0.3" d="M95.9653 149.892C95.9544 150.388 95.8183 150.764 95.5352 151.096C93.3522 153.785 91.1855 156.49 88.9916 159.163C88.2023 160.127 86.9719 160.116 86.1826 159.153C85.2571 158.015 84.3371 156.877 83.4116 155.739C86.237 155.619 89.0025 154.318 90.9024 152.222C92.3614 150.617 93.3086 148.57 93.5917 146.43C93.7768 146.659 93.9674 146.898 94.1524 147.127C94.6097 147.688 95.0616 148.248 95.5189 148.815C95.802 149.136 95.9489 149.522 95.9598 149.898L95.9653 149.892Z" fill="#030073"/>
<path opacity="0.3" d="M85.6489 169.91C85.687 170.416 85.4638 170.819 85.1698 171.194C83.0848 173.764 80.9835 176.344 78.893 178.914C78.0928 179.905 77.0856 180.117 76.2582 179.491C75.79 179.132 75.4797 178.636 75.1204 178.179C74.5161 177.444 73.901 176.693 73.3293 175.958C76.084 175.8 78.7624 174.515 80.6242 172.463C82.1213 170.819 83.0739 168.663 83.3298 166.426C83.945 167.177 84.5492 167.912 85.1481 168.658C85.4584 169.017 85.6979 169.409 85.6543 169.904L85.6489 169.91Z" fill="#030073"/>
<path opacity="0.45" d="M65.6698 147.377C64.0094 149.397 61.5324 150.671 58.9411 150.938C58.756 150.644 58.6308 150.323 58.658 149.936C58.6308 149.468 58.8431 149.081 59.1371 148.717C61.2384 146.12 63.3398 143.539 65.4411 140.943C66.2196 139.99 67.1015 139.794 67.929 140.355C68.0869 142.87 67.2866 145.439 65.6698 147.377Z" fill="white"/>
<path opacity="0.45" d="M78.4194 127.709C78.4739 130.093 77.6682 132.483 76.1439 134.317C74.4018 136.402 71.7833 137.704 69.0777 137.889C68.7837 137.274 68.8763 136.642 69.3717 136.027C71.5274 133.348 73.6941 130.686 75.8608 128.024C76.2201 127.567 76.6883 127.273 77.2272 127.3C77.7226 127.3 78.1091 127.436 78.4194 127.703V127.709Z" fill="white"/>
<path opacity="0.45" d="M88.6704 140.475C88.7249 142.859 87.9192 145.249 86.3949 147.083C84.6691 149.158 82.0724 150.453 79.3722 150.655C79.0891 150.039 79.1871 149.397 79.6825 148.782C80.2432 148.074 80.8203 147.377 81.381 146.67C82.693 145.064 83.9887 143.447 85.317 141.841C85.6109 141.482 85.9049 141.117 86.1989 140.758C86.8794 139.914 87.8702 139.832 88.6759 140.475H88.6704Z" fill="white"/>
<path opacity="0.45" d="M78.4358 160.481C78.4631 162.849 77.6737 165.233 76.1494 167.063C74.4074 169.164 71.7997 170.46 69.0995 170.65C68.7675 169.997 68.8872 169.403 69.4588 168.685C71.5439 166.077 73.6615 163.464 75.7738 160.873C76.5904 159.871 77.5648 159.762 78.4358 160.486V160.481Z" fill="white"/>
<path d="M87.6741 160.993C86.7378 160.993 85.8341 160.541 85.1917 159.751C83.0033 157.073 80.8257 154.389 78.6536 151.7C77.6138 150.415 77.6083 148.88 78.6372 147.601C81.1632 144.465 83.2537 141.895 85.2026 139.511C85.845 138.727 86.7106 138.292 87.6415 138.292C88.6105 138.292 89.5196 138.76 90.2055 139.604C91.3869 141.057 92.5682 142.511 93.7441 143.97L96.7001 147.617C97.1574 148.178 97.4133 148.831 97.4405 149.506V149.577C97.4351 150.361 97.1901 151.052 96.7165 151.64L95.0452 153.703C93.4066 155.728 91.7679 157.753 90.1184 159.768C89.4761 160.552 88.605 160.987 87.6632 160.987L87.6741 160.993ZM87.6415 141.019C87.5054 141.019 87.3638 141.177 87.3094 141.242C85.3605 143.621 83.2809 146.191 80.7549 149.321C80.5426 149.582 80.5208 149.697 80.7658 149.996C82.9379 152.68 85.1155 155.364 87.2985 158.037C87.4237 158.189 87.5598 158.276 87.6741 158.276C87.8211 158.276 87.9572 158.14 88.0225 158.053C89.672 156.044 91.3052 154.019 92.9384 151.999L94.6097 149.936C94.6804 149.849 94.7185 149.767 94.7294 149.604C94.724 149.55 94.6968 149.457 94.5988 149.337L91.6373 145.684C90.4614 144.231 89.2801 142.777 88.0988 141.324C87.9137 141.095 87.7395 141.013 87.6415 141.013V141.019Z" fill="#040F58"/>
<path d="M77.2491 181.102C76.6176 181.102 75.9861 180.89 75.42 180.46C74.93 180.09 74.6034 179.649 74.3094 179.262C74.2223 179.148 74.1352 179.034 74.0481 178.925C72.1373 176.584 70.2374 174.238 68.3429 171.88C67.2106 170.476 67.2106 169.05 68.3429 167.645C70.5803 164.858 72.6654 162.283 74.7177 159.768C75.6377 158.641 76.6231 158.401 77.2927 158.401H77.2981C77.9786 158.401 78.9912 158.652 79.9439 159.833C81.6424 161.934 83.3463 164.036 85.0502 166.132L86.2534 167.612C86.4874 167.901 87.108 168.663 87.0754 169.73C87.1135 170.841 86.4874 171.614 86.2751 171.875L86.139 172.044C84.0812 174.586 82.018 177.123 79.9547 179.66C79.1817 180.607 78.2127 181.097 77.2491 181.097V181.102ZM77.2872 161.123C77.2274 161.123 77.0532 161.199 76.8191 161.488C74.7722 163.992 72.6926 166.567 70.4606 169.349C70.1339 169.757 70.1339 169.763 70.4606 170.171C72.3496 172.517 74.2495 174.864 76.1549 177.199C76.2692 177.335 76.3781 177.482 76.4815 177.624C76.6939 177.907 76.8735 178.146 77.064 178.288C77.1566 178.359 77.3689 178.517 77.8371 177.939C79.9003 175.408 81.9581 172.866 84.0159 170.329L84.152 170.16C84.2827 169.997 84.348 169.883 84.3425 169.817V169.73V169.643C84.3425 169.638 84.3153 169.556 84.1302 169.327L82.9271 167.846C81.2232 165.745 79.5138 163.644 77.8153 161.542C77.5485 161.21 77.3471 161.123 77.2763 161.123H77.2872Z" fill="#040F58"/>
<path d="M77.3034 148.134C76.3453 148.134 75.4361 147.66 74.7393 146.806C73.7649 145.614 72.7959 144.416 71.8268 143.218L69.6765 140.567C69.2138 140.001 68.751 139.429 68.2937 138.858C67.254 137.562 67.2431 136.032 68.2665 134.764C70.4386 132.069 72.6162 129.385 74.7992 126.701C75.4742 125.874 76.3562 125.433 77.2653 125.471C78.2887 125.471 79.1271 125.869 79.7586 126.642L79.9491 126.876C82.0668 129.483 84.1791 132.085 86.2913 134.699C87.3637 136.027 87.3637 137.551 86.2913 138.879C84.1464 141.531 81.996 144.176 79.8457 146.822C79.1543 147.666 78.2506 148.134 77.3034 148.134ZM77.1619 128.193C77.1619 128.193 77.0421 128.253 76.906 128.422C74.7284 131.106 72.5509 133.784 70.3788 136.479C70.1882 136.718 70.1447 136.827 70.406 137.159C70.8633 137.725 71.3206 138.292 71.7833 138.858L73.9336 141.514C74.9026 142.712 75.8717 143.904 76.8407 145.096C77.0366 145.336 77.2 145.418 77.2925 145.418C77.3796 145.418 77.5429 145.336 77.728 145.107C79.8784 142.467 82.0287 139.821 84.1682 137.17C84.4295 136.849 84.4295 136.74 84.1682 136.413C82.0614 133.806 79.9437 131.198 77.8315 128.596L77.6409 128.362C77.5538 128.258 77.4939 128.193 77.2381 128.193H77.2H77.1619Z" fill="#040F58"/>
<path d="M66.9383 160.993C65.9856 160.993 65.0656 160.508 64.347 159.626C62.8336 157.77 61.3256 155.908 59.8176 154.052L57.9613 151.765C57.749 151.504 57.1229 150.731 57.1665 149.609C57.1501 148.885 57.406 148.205 57.9504 147.535L59.8939 145.135C61.3637 143.322 62.8281 141.514 64.3034 139.707C65.2561 138.542 66.2523 138.297 66.9274 138.297C67.6024 138.297 68.6041 138.542 69.5677 139.723C71.669 142.304 73.7649 144.89 75.8608 147.481C77.0258 148.923 77.0258 150.377 75.8663 151.814C73.754 154.427 71.6364 157.04 69.5132 159.643C68.8001 160.519 67.8855 160.998 66.9383 160.998V160.993ZM66.9328 141.019C66.8838 141.019 66.6933 141.09 66.4211 141.427C64.9513 143.235 63.4814 145.042 62.017 146.849L60.0681 149.25C59.932 149.413 59.8884 149.517 59.8884 149.555V149.637V149.718C59.8884 149.784 59.9483 149.892 60.0735 150.05L61.9299 152.337C63.4378 154.193 64.9458 156.055 66.4538 157.911C66.6879 158.2 66.873 158.276 66.9328 158.276C66.9927 158.276 67.1724 158.2 67.401 157.922C69.5241 155.32 71.6364 152.712 73.7486 150.099C74.0861 149.68 74.1025 149.637 73.7432 149.19C71.6527 146.604 69.5568 144.019 67.4555 141.444C67.1724 141.101 66.9764 141.024 66.9274 141.024L66.9328 141.019Z" fill="#040F58"/>
<path d="M75.7956 149.762C75.9263 150.012 76.1005 150.246 76.3509 150.377C76.7156 150.573 77.162 150.508 77.5485 150.377C78.1147 150.181 78.6428 149.822 78.9367 149.305C79.2307 148.787 79.247 148.085 78.8877 147.611C78.5883 147.22 78.0766 147.024 77.5812 146.996C77.113 146.969 76.1059 146.953 75.7793 147.377C75.3057 147.993 75.469 149.136 75.7956 149.767V149.762Z" fill="#040F58"/>
<path opacity="0.3" d="M40.971 172.245C32.9085 158.347 31.9068 140.725 37.5358 125.678C36.7301 125.466 36.017 125.879 35.3365 126.358C33.1045 127.937 31.3189 130.343 30.6384 132.995C27.5953 144.851 28.5588 157.699 33.3332 168.962C33.4094 169.137 33.4638 169.311 33.5074 169.485C32.3805 168.761 31.1719 168.173 29.898 167.754C25.9022 166.431 21.4219 166.622 17.5513 168.282C17.671 169.039 17.8344 169.997 17.9541 170.754C21.5471 169.218 25.7117 169.071 29.4081 170.345C30.7255 170.803 31.9776 171.439 33.1317 172.223C32.0811 174.341 29.5006 176.17 27.2088 176.785C23.7737 177.7 19.8268 176.099 18.0031 173.051C18.2971 176.862 19.6689 180.945 23.0551 182.719C26.4466 184.494 30.7636 183.449 33.8285 181.146C35.3528 180.003 36.6322 178.598 37.7808 177.074C37.9169 177.292 38.0421 177.509 38.1673 177.738C38.5647 177.025 38.9839 176.372 39.3759 175.659C39.2833 175.506 39.1908 175.354 39.0982 175.201C39.7461 174.227 40.3667 173.236 40.971 172.245Z" fill="#040F58"/>
<path opacity="0.3" d="M114.453 172.245C122.515 158.347 123.517 140.725 117.888 125.678C118.693 125.466 119.407 125.879 120.087 126.358C122.319 127.937 124.105 130.343 124.785 132.995C127.828 144.851 126.865 157.699 122.09 168.962C122.014 169.137 121.96 169.311 121.916 169.485C123.043 168.761 124.252 168.173 125.526 167.754C129.521 166.431 134.002 166.622 137.872 168.282C137.753 169.039 137.589 169.997 137.469 170.754C133.876 169.218 129.712 169.071 126.015 170.345C124.698 170.803 123.446 171.439 122.292 172.223C123.343 174.341 125.923 176.17 128.215 176.785C131.65 177.7 135.597 176.099 137.42 173.051C137.126 176.862 135.755 180.945 132.369 182.719C128.977 184.494 124.66 183.449 121.595 181.146C120.071 180.003 118.791 178.598 117.643 177.074C117.507 177.292 117.381 177.509 117.256 177.738C116.859 177.025 116.44 176.372 116.048 175.659C116.14 175.506 116.233 175.354 116.325 175.201C115.678 174.227 115.057 173.236 114.453 172.245Z" fill="#040F58"/>
</g>
<defs>
<clipPath id="clip0_22132_338073">
<rect width="154.117" height="240" fill="white"/>
</clipPath>
</defs>
</svg>
